# Blender v3.2.0 OBJ File: ''
# www.blender.org
o Cube.001
v 8.037472 -2.614401 41.354294
v -5.794267 -2.614401 41.354294
v -5.794267 -2.614380 -90.993874
v -5.794267 -1.108904 -90.993874
v 8.037472 -1.108904 -90.993874
v 8.037472 -2.614380 -90.993874
v 8.037472 -1.108925 41.354294
v -5.794267 -1.108925 41.354294
vt 0.875000 0.500000
vt 0.625000 0.500000
vt 0.625000 0.750000
vt 0.375000 0.750000
vt 0.375000 1.000000
vt 0.625000 0.000000
vt 0.375000 0.000000
vt 0.375000 0.250000
vt 0.375000 0.500000
vt 0.125000 0.500000
vt 0.125000 0.750000
vt 0.625000 0.250000
vt 0.875000 0.750000
vt 0.625000 1.000000
vn 0.0000 -1.0000 -0.0000
vn 0.0000 0.0000 -1.0000
vn 1.0000 0.0000 0.0000
vn 0.0000 1.0000 0.0000
vn -1.0000 0.0000 0.0000
vn 0.0000 0.0000 1.0000
s off
f 1/1/1 2/2/1 3/3/1
f 3/3/2 4/4/2 5/5/2
f 6/6/3 5/7/3 7/8/3
f 8/9/4 7/10/4 5/11/4
f 2/2/5 8/9/5 4/4/5
f 1/12/6 7/8/6 8/9/6
f 1/1/1 3/3/1 6/13/1
f 3/3/2 5/5/2 6/14/2
f 6/6/3 7/8/3 1/12/3
f 8/9/4 5/11/4 4/4/4
f 2/2/5 4/4/5 3/3/5
f 1/12/6 8/9/6 2/2/6
