# Blender v3.2.0 OBJ File: 'newcar env (3).blend'
# www.blender.org
mtllib roadfinal.mtl
o rua_Cubo.001
v -33.254829 2.693964 384.044281
v 11.933661 2.693961 384.044281
v 11.933661 0.147468 384.044281
v -33.254829 0.147470 384.044281
v 11.933636 2.693961 -176.548035
v 11.933636 0.147468 -176.548035
v -33.254852 2.693964 -176.548035
v -33.254852 0.147470 -176.548035
vt 2.338983 0.030904
vt -1.338983 0.030904
vt -1.338983 0.969096
vt 2.338983 0.969096
vt 2.338983 0.030904
vt -1.338983 0.030904
vt -1.338983 0.969096
vt 2.338983 0.969096
vt 2.338983 0.030904
vt -1.338983 0.030904
vt -1.338983 0.969096
vt 2.338983 0.969096
vt 2.338983 0.030904
vt -1.338983 0.030904
vt -1.338983 0.969096
vt 2.338983 0.969096
vt -1.338983 0.030904
vt -1.338983 0.969096
vt 2.338983 0.030904
vt 2.338983 0.969096
vn 0.0000 0.0000 1.0000
vn 1.0000 0.0000 -0.0000
vn 0.0000 0.0000 -1.0000
vn -1.0000 0.0000 0.0000
vn 0.0000 1.0000 -0.0000
vn -0.0000 -1.0000 0.0000
usemtl Materiais.002
s 1
f 1/1/1 4/2/1 3/3/1 2/4/1
f 2/5/2 3/6/2 6/7/2 5/8/2
f 5/9/3 6/10/3 8/11/3 7/12/3
f 7/13/4 8/14/4 4/15/4 1/16/4
f 2/5/5 5/17/5 7/18/5 1/16/5
f 6/19/6 3/6/6 4/15/6 8/20/6
